<mxfile host="65bd71144e">
    <diagram id="x6iHlNwUUClpnulgchmQ" name="Page-1">
        <mxGraphModel dx="629" dy="931" grid="1" gridSize="10" guides="1" tooltips="1" connect="1" arrows="1" fold="1" page="1" pageScale="1" pageWidth="850" pageHeight="1100" math="0" shadow="0">
            <root>
                <mxCell id="0"/>
                <mxCell id="1" parent="0"/>
                <mxCell id="65" value="" style="shape=image;verticalLabelPosition=bottom;labelBackgroundColor=default;verticalAlign=top;aspect=fixed;imageAspect=0;image=data:image/png,iVBORw0KGgoAAAANSUhEUgAAAuoAAAFwCAYAAADucl4eAAAMTmlDQ1BJQ0MgUHJvZmlsZQAASImVVwdYU8kWnltSIQQIREBK6E0QqQGkhNACSC+CqIQkQCgxJgQVO7K4gmsXESwrugqi2FZAFhvqqiuLgr0uFlSUdXFd7MqbEECXfeV7831z57//nPnnnHNn7r0DAL2LL5XmopoA5EnyZbEhAazJySksUg8gAV2gAzyBE18gl3KioyMALMPt38vrawBRtpcdlFr/7P+vRUsokgsAQKIhThfKBXkQ/wgA3iKQyvIBIEohbz4rX6rE6yDWkUEHIa5R4kwVblHidBW+NGgTH8uF+BEAZHU+X5YJgEYf5FkFgkyoQ4fRAieJUCyB2B9i37y8GUKIF0FsA23gnHSlPjv9K53Mv2mmj2jy+ZkjWBXLYCEHiuXSXP6c/zMd/7vk5SqG57CGVT1LFhqrjBnm7VHOjHAlVof4rSQ9MgpibQBQXCwctFdiZpYiNEFlj9oI5FyYM8CEeKI8N443xMcK+YHhEBtCnCHJjYwYsinKEAcrbWD+0ApxPi8eYj2Ia0TyoLghmxOyGbHD817LkHE5Q/xTvmzQB6X+Z0VOAkelj2lniXhD+phjYVZ8EsRUiAMLxImREGtAHCnPiQsfskktzOJGDtvIFLHKWCwglokkIQEqfaw8QxYcO2S/O08+HDt2IkvMixzCnflZ8aGqXGGPBPxB/2EsWJ9IwkkY1hHJJ0cMxyIUBQapYsfJIklCnIrH9aT5AbGqsbidNDd6yB4PEOWGKHkziOPlBXHDYwvy4eJU6eMl0vzoeJWfeGU2Pyxa5Q++H0QALggELKCANR3MANlA3N7b2AvvVD3BgA9kIBOIgMMQMzwiabBHAq9xoBD8DpEIyEfGBQz2ikAB5D+NYpWceIRTXR1AxlCfUiUHPIY4D4SDXHivGFSSjHiQCB5BRvwPj/iwCmAMubAq+/89P8x+YTiQiRhiFMMzsujDlsQgYiAxlBhMtMUNcF/cG4+AV39YnXE27jkcxxd7wmNCB+EB4Sqhi3BzurhINsrLSaAL6gcP5Sf96/zgVlDTDQ/AfaA6VMaZuAFwwF3hPBzcD87sBlnukN/KrLBGaf8tgq+e0JAdxYmCUsZQ/Ck2o0dq2Gm4jagoc/11flS+po/kmzvSM3p+7lfZF8I2fLQl9i12CDuLncTOYy1YI2Bhx7EmrA07qsQjK+7R4Iobni120J8cqDN6zXx5sspMyp3qnHqcPqr68kWz85WbkTtDOkcmzszKZ3HgF0PE4kkEjuNYzk7ObgAovz+q19urmMHvCsJs+8It+Q0An+MDAwM/feHCjgNwwAO+Eo584WzY8NOiBsC5IwKFrEDF4coLAb456HD36QNjYA5sYDzOwB14A38QBMJAFIgHyWAa9D4LrnMZmAXmgcWgBJSBVWA9qARbwXZQA/aCg6ARtICT4GdwAVwCV8FtuHq6wXPQB16DDwiCkBAawkD0ERPEErFHnBE24osEIRFILJKMpCGZiARRIPOQJUgZsgapRLYhtcgB5AhyEjmPdCA3kftID/In8h7FUHVUBzVCrdDxKBvloOFoPDoVzURnooVoMboCrUCr0T1oA3oSvYBeRbvQ52g/BjA1jImZYg4YG+NiUVgKloHJsAVYKVaOVWP1WDN8zpexLqwXe4cTcQbOwh3gCg7FE3ABPhNfgC/HK/EavAE/jV/G7+N9+GcCjWBIsCd4EXiEyYRMwixCCaGcsJNwmHAG7qVuwmsikcgkWhM94F5MJmYT5xKXEzcT9xFPEDuID4n9JBJJn2RP8iFFkfikfFIJaSNpD+k4qZPUTXpLViObkJ3JweQUsoRcRC4n7yYfI3eSn5A/UDQplhQvShRFSJlDWUnZQWmmXKR0Uz5QtajWVB9qPDWbuphaQa2nnqHeob5SU1MzU/NUi1ETqy1Sq1Dbr3ZO7b7aO3VtdTt1rnqqukJ9hfou9RPqN9Vf0Wg0K5o/LYWWT1tBq6Wdot2jvdVgaDhq8DSEGgs1qjQaNDo1XtApdEs6hz6NXkgvpx+iX6T3alI0rTS5mnzNBZpVmkc0r2v2azG0JmhFaeVpLdfarXVe66k2SdtKO0hbqF2svV37lPZDBsYwZ3AZAsYSxg7GGUa3DlHHWoenk61TprNXp12nT1db11U3UXe2bpXuUd0uJsa0YvKYucyVzIPMa8z3Y4zGcMaIxiwbUz+mc8wbvbF6/noivVK9fXpX9d7rs/SD9HP0V+s36t81wA3sDGIMZhlsMThj0DtWZ6z3WMHY0rEHx94yRA3tDGMN5xpuN2wz7DcyNgoxkhptNDpl1GvMNPY3zjZeZ3zMuMeEYeJrIjZZZ3Lc5BlLl8Vh5bIqWKdZfaaGpqGmCtNtpu2mH8yszRLMisz2md01p5qzzTPM15m3mvdZmFhMsphnUWdxy5JiybbMstxgedbyjZW1VZLVUqtGq6fWetY860LrOus7NjQbP5uZNtU2V2yJtmzbHNvNtpfsUDs3uyy7KruL9qi9u73YfrN9xzjCOM9xknHV4647qDtwHAoc6hzuOzIdIxyLHBsdX4y3GJ8yfvX4s+M/O7k55TrtcLo9QXtC2ISiCc0T/nS2cxY4VzlfcaG5BLssdGlyeelq7ypy3eJ6w43hNsltqVur2yd3D3eZe717j4eFR5rHJo/rbB12NHs5+5wnwTPAc6Fni+c7L3evfK+DXn94O3jneO/2fjrReqJo4o6JD33MfPg+23y6fFm+ab7f+3b5mfrx/ar9Hvib+wv9d/o/4dhysjl7OC8CnAJkAYcD3nC9uPO5JwKxwJDA0sD2IO2ghKDKoHvBZsGZwXXBfSFuIXNDToQSQsNDV4de5xnxBLxaXl+YR9j8sNPh6uFx4ZXhDyLsImQRzZPQSWGT1k66E2kZKYlsjAJRvKi1UXejraNnRv8UQ4yJjqmKeRw7IXZe7Nk4Rtz0uN1xr+MD4lfG306wSVAktCbSE1MTaxPfJAUmrUnqmjx+8vzJF5INksXJTSmklMSUnSn9U4KmrJ/SneqWWpJ6bar11NlTz08zmJY77eh0+nT+9ENphLSktN1pH/lR/Gp+fzovfVN6n4Ar2CB4LvQXrhP2iHxEa0RPMnwy1mQ8zfTJXJvZk+WXVZ7VK+aKK8Uvs0Ozt2a/yYnK2ZUzkJuUuy+PnJeWd0SiLcmRnJ5hPGP2jA6pvbRE2jXTa+b6mX2ycNlOOSKfKm/K14E/+m0KG8U3ivsFvgVVBW9nJc46NFtrtmR22xy7OcvmPCkMLvxhLj5XMLd1num8xfPuz+fM37YAWZC+oHWh+cLihd2LQhbVLKYuzln8a5FT0Zqiv5YkLWkuNipeVPzwm5Bv6ko0SmQl15d6L936Lf6t+Nv2ZS7LNi77XCos/aXMqay87ONywfJfvpvwXcV3AysyVrSvdF+5ZRVxlWTVtdV+q2vWaK0pXPNw7aS1DetY60rX/bV++vrz5a7lWzdQNyg2dFVEVDRttNi4auPHyqzKq1UBVfs2GW5atunNZuHmzi3+W+q3Gm0t2/r+e/H3N7aFbGuotqou307cXrD98Y7EHWd/YP9Qu9NgZ9nOT7sku7pqYmtO13rU1u423L2yDq1T1PXsSd1zaW/g3qZ6h/pt+5j7yvaD/Yr9zw6kHbh2MPxg6yH2ofofLX/cdJhxuLQBaZjT0NeY1djVlNzUcSTsSGuzd/Phnxx/2tVi2lJ1VPfoymPUY8XHBo4XHu8/IT3RezLz5MPW6a23T00+deV0zOn2M+Fnzv0c/POps5yzx8/5nGs573X+yC/sXxovuF9oaHNrO/yr26+H293bGy56XGy65HmpuWNix7FOv86TlwMv/3yFd+XC1cirHdcSrt24nnq964bwxtObuTdf3iq49eH2ojuEO6V3Ne+W3zO8V/2b7W/7uty7jt4PvN/2IO7B7YeCh88fyR997C5+THtc/sTkSe1T56ctPcE9l55Nedb9XPr8Q2/J71q/b3ph8+LHP/z/aOub3Nf9UvZy4M/lr/Rf7frL9a/W/uj+e6/zXn94U/pW/23NO/a7s++T3j/5MOsj6WPFJ9tPzZ/DP98ZyBsYkPJl/MFfAQwojzYZAPy5CwBaMgAMeG6kTlGdDwcLojrTDiLwn7DqDDlY3AGoh//0Mb3w7+Y6APt3AGAF9empAETTAIj3BKiLy0gdPssNnjuVhQjPBt+HfErPSwf/pqjOpF/5PboFSlVXMLr9FxIjg0Sf4ZrpAAAAlmVYSWZNTQAqAAAACAAFARIAAwAAAAEAAQAAARoABQAAAAEAAABKARsABQAAAAEAAABSASgAAwAAAAEAAgAAh2kABAAAAAEAAABaAAAAAAAAAJAAAAABAAAAkAAAAAEAA5KGAAcAAAASAAAAhKACAAQAAAABAAAC6qADAAQAAAABAAABcAAAAABBU0NJSQAAAFNjcmVlbnNob3T6lGbuAAAACXBIWXMAABYlAAAWJQFJUiTwAAAC22lUWHRYTUw6Y29tLmFkb2JlLnhtcAAAAAAAPHg6eG1wbWV0YSB4bWxuczp4PSJhZG9iZTpuczptZXRhLyIgeDp4bXB0az0iWE1QIENvcmUgNi4wLjAiPgogICA8cmRmOlJERiB4bWxuczpyZGY9Imh0dHA6Ly93d3cudzMub3JnLzE5OTkvMDIvMjItcmRmLXN5bnRheC1ucyMiPgogICAgICA8cmRmOkRlc2NyaXB0aW9uIHJkZjphYm91dD0iIgogICAgICAgICAgICB4bWxuczpleGlmPSJodHRwOi8vbnMuYWRvYmUuY29tL2V4aWYvMS4wLyIKICAgICAgICAgICAgeG1sbnM6dGlmZj0iaHR0cDovL25zLmFkb2JlLmNvbS90aWZmLzEuMC8iPgogICAgICAgICA8ZXhpZjpVc2VyQ29tbWVudD5TY3JlZW5zaG90PC9leGlmOlVzZXJDb21tZW50PgogICAgICAgICA8ZXhpZjpQaXhlbFhEaW1lbnNpb24+NzQ2PC9leGlmOlBpeGVsWERpbWVuc2lvbj4KICAgICAgICAgPGV4aWY6UGl4ZWxZRGltZW5zaW9uPjM2ODwvZXhpZjpQaXhlbFlEaW1lbnNpb24+CiAgICAgICAgIDx0aWZmOlJlc29sdXRpb25Vbml0PjI8L3RpZmY6UmVzb2x1dGlvblVuaXQ+CiAgICAgICAgIDx0aWZmOlhSZXNvbHV0aW9uPjE0NC8xPC90aWZmOlhSZXNvbHV0aW9uPgogICAgICAgICA8dGlmZjpZUmVzb2x1dGlvbj4xNDQvMTwvdGlmZjpZUmVzb2x1dGlvbj4KICAgICAgICAgPHRpZmY6T3JpZW50YXRpb24+MTwvdGlmZjpPcmllbnRhdGlvbj4KICAgICAgPC9yZGY6RGVzY3JpcHRpb24+CiAgIDwvcmRmOlJERj4KPC94OnhtcG1ldGE+CiugeskAADZFSURBVHgB7d1ptzRLWtbxk9v6nL71td/AL+E8gTisBa6ljSKLqaUFRPoZBKSBXiiDNrbSNIMtiq4l27gj8s7MyBpa+5z9ZFTVL9c5Oyoy97Mr6x/XdcVQsWtPX3r3l18/cyCAAAIIIIAAAggggMBQBF6Guhs3gwACCCCAAAIIIIAAApXAaapFfI2FdSUOdMAHckAOyAE5IAfkgBwYIQdeohlCjEoc6IAP5IAckANyQA7IATkwTg68xJw5ZgzbMmrbuus9D3x6HvTR86CPngd99Dzoo+dBHz0P+uh50EfP4631seed9bd+Xj+/b+fkHmXdoz7N6+kxg2pHX7re89hzwgefS75JndAHfdBHELisA/64zCV54YPPEflBd+PoruxRL2vn8V/eUyhCHQ96aNnID/JAHspDeSgPk8Cj58GzvM47asdTnbVvQygaST2l2ko88NgSoIctDXlBD/SwJUAPWxry4d70kK13b/f9wPfbVtSzYZQIIIAAAggggAACCCAwBIGyRz2nIcrWIjjgEATogA7ogA/kgByQA3Lg2ByYfuTdX3mNPel1XKLEIfRIB3RAB3wgB+SAHJADcuDwHCifo16cWP9T4hBSoAM6oAM+kANyQA7IATkwQg7UPeoxYYpp41LWGdSm7jo+9MEfmQPyoYxg5OPSX6QusqQP+uCPtb9IX2Q5uj/yPvfl6Pf9wPdXP0e9tsf2S5lE3Txcv4knZmA3D9dv4sHvNh588LlJQL7cxMM/t/Hg8+R8rr18uXKNTDv/hnzqXyadpnl1aC7V8YjJ6Wf0UFdF+IEf+EEeyMOWA/LwsfOQzgfU+b+IXyZ1IIAAAggggAACCCCAwFAEyh71cpSV089ey3hdiQMd8IEckANyQA7IATkgB4bIgelHragPNXNyMwgggAACCCCAAAIIBIFT7DerR2yAmR+qFwJ40AM/1CiQB/JAHhYNyAN5kAQefXzwLK/zTtrxVLe8bBslH0cZL2J7qG9p4EMP9LAlQA9bGvKBHuhhS4AetjTGz4e8W+2WJFp5AI9TLBPYilY8U+DjgAMd8IEckANyQA7IATkwSg6Uz1EvI9Q6Q2jltKu7jg99xESaPwKBfOjzIHWRJT74bPMydZElfdDHPeqDbo/Vbd2j3rbetc+OfI0V9jouaSvt0TW7HkDwCR3QB3/IhzCCfIwVx8zFLOWDfJAPD5APxn1DjXunH3v3V8tUIY4oqsVqTR0PeuCHOQzkg3zUP+gf1zjghwf3Qza1cdAI46D5c9RLo5QVoj6H5nq2k+v4dONW+qh+4Y/mC/kgH+RDjm7W/lQ+yIfwxd3lY7nnu7zvxxyXTD++rKivGeMRAggggAACCCCAAAIIHEug7FGPG6hTJyUORQPLEhA90AM98IMckANyQA7IgQNzYPoJK+pFgA4EEEAAAQQQQAABBMYisK6o5wdG5sxRvbzRsHmnAQ886KGk1/yOCz/wAz/wgzwoGijjhEfLQ+06VLtOP2lFvTSIAwEEEEAAAQQQQACBsQicYtV4s2683N21ncr5Da7XeXTOO5cSn0aAPuhjmyupB/7gjyCQetiX9EEf9DGeP/jyWF+e6ls2cytEaMYRHWwcWW+1te56I4JPKqPnQR89j6SUesEHnyCQeqCPXg/80fOgj54HffQ8vmh95M/LMnMK97flfotv/cuk8fT5Tdk46kmilXjgsSVAD1sa8oMe6GFLgB62NOTDvekhW+/e7vtR77esqJcmiVcXvwyRw3V1POiBH+RB0cAsA36YQeChvywa4IfH9UN5ZfUwDhxG59OX3/+1fGcjm0eJAAIIIIAAAggggAACBxNoK+r1JjYr6uqFAB7LOyz0QA/8UDSwfWNVPuBBD7Vr0D88YP+QLSvnRsi5+XPUo1G2oaOOBz1kVLUSDzy2BOhhS0Ne0gM9bAncux7ytdz763iM+39ZPnogJk5xKHGgAz6QA3JADsgBOSAH5MDhOTD9dN2jHrOOcKQSBzrgAzkgB+SAHJADckAOjJADL/WXt8sgvZbli3qbPuIRczd64Ad+iM5aHsgDeag/eIr+QL8/3Di47lGvf5t0ajOnqXRK6mUlAY/SM4cS6IEf+EEe6B/kof7gGfpDOh9P5/Me9RLC5b8QYfxXv1woXceHPvhDPlzOAfl4mUvqBR989B/313/w7fG+nb7y/q+Xu3AggAACCCCAAAIIIIDASATK56iXcfq13xnJO3W9vdOw54BPI7DnknV88AkCqYd9SR/0QR/8sc+FrMuHY/IB92O439D99K+sqKcslQgggAACCCCAAAIIDEOg7FGfd74s5XxvS931SmThgU/Pgz56HvTR86CPngd99Dzoo+dBHz0P+uh5HKWPo5432/+5n3/6GSvqswIUCCCAAAIIIIAAAgiMQ2D5y6S5YNx+K7tsyZ4nMuqtsfCYRZsTXPqYhUEfQYA/mg7kJT/wgzy49zyUY2Pl2Ev8olfsYZ/mUh0PeuAHedByQB7KQ3koD58tD+XeWLn30uYNviKAAAIIIIAAAggggMBIBF7qakGZPl0qY05x6XycjfOu40MfzQWXOPAHf1zShfzUf+g/jR9G7R9Gva+nzs2ffVf+4FGkRuw5VuJAB3wgB+SAHJADckAOyIEhcmD6ufqpLxzJkRw5hCPNmK0YWDGxciQH5IAckANzDswD9cLDgQACCCCAAAIIIIAAAsMQOOVuwWHuyI0ggAACCCCAAAIIIIDAZ6dly0d88GfsgKlHeaCOBz3wgzwoBOSh/kD/aHwwdwcPnwfP8jrvJ9enn3//N2Jz8rIjLpsodyyrNwJ4bOYt9MIvRQPLPI4e6IEe+KFoIA/95X3no3ZsBEbR8Y3PUY9bvHW4fotOm/rc+g78btHBjz7o4xYB+rhFR37QB33cIvDd9HHt3363f+f6NXLt/PfGpw7UY2Us/48f1h6vu9fzWpRxuB4M8On10HRBH/whH+SDfNQ/6B/qcGkeL91X/7j24/d134+aO8vWlyYpXxFAAAEEEEAAAQQQQGAEAuVTXxwIIIAAAggggAACCCAwGoEbe9RHu1X3gwACCCCAAAIIIIDA8xBoK+pTWVePj2Osu6lKqY4HPfCDPCgakIf6A/2j8cETjY/k/nC5P/3C/PGM5c4cCCCAAAIIIIAAAgggMAiBzV8mzRlj3pn6+vvOwQQPPLa/0UEP9EAP2VvIR3kgDx4pD9LZdD2Crue/TLptlHicgotG2h5Zd71RSR7JKOv44BMEUg/00euBP3oe9NHzoI+eB330POij5/FF6yN/XpbZj+H+ttyv820r6uV6bEmOrem5cPz6Wj6Rsqu73vPAp+dBHz0P+uh50EfPgz56HvTR86CPngd99DzeVh/rOBD3T8n92rh7+mrZo16avLRLzppKw6jjQQ+5nMAP8kAeyAN5MBMwPnjs8VIKXTuP087Tu/d/cx2hry10/q59XosyV9q357aPXcfvXFWrQuiDPuhj9cP+EX/wB3/sXbHW+eNt/bGS7h/h/rbcb/C9/DnqNSRuJIXrRcD49C7e1OiDPvhjY4jdQ/7gD/7YmWJT5Y9j/bFpiu6hdjmsXebPUZ+fP0f0tSxfunr5nq7ues8Dn54HffQ86KPnQR89D/roedBHz4M+eh700fP4ovWx/3lZx/1tuV/mO72/tPWltIkDAQQQQAABBBBAAAEEjiNwY0W93FQZ3Nd36JQ4xNtedEAHdMAHckAOyAE5IAc+WQ5MH6yoHzdN8swIIIAAAggggAACCFwhcJrqh0SWq8sHqc/fqV5mzDFlxKMSoAd64IdMA3kpD+SBPHjcPMhXxudD+LyuqHsH45O9g2EnUQkAeqM375zzgRyQA3JADsiB754D9S+T1onxPHOainPUy2gSjyoEeuAHeSAP5GHrGOWhPHz0PIyVNDofS+enOpaPaW0cMTitZSvU8aCHQoA/WiDIh5lDK+SjfKxKkA/yIQg8XD62Zn2813V/ubXsUY+3H7ZHzKjqHoX5pOtbOm3Gic/KhD5WFvGIfwLCymTzsJ7EBx/64I8kIB+SRCuPzse8G+2SJI5tl1ObLUVz5Mh8U84Tj9bjbs7XhC111+dWxI9++OMsJ+SDfKgE5KN8lI/3k49zbOU4b1/K9U+e69Mvvv9br107ZBtd8FX9PtcbAXzOcoc+0hylpA/6uDQ+TYnQB33Qx3lO8kcjMFo+aJdD26UN1LMRlAgggAACCCCAAAIIIDAEgbJHfYj7cBMIIIAAAggggAACCCCwIXCqn0JYTuQ7LXkt6/vS9UZgzyXr+OATBFIP+5I+6IM++GOfC1mXD/JhxHygy2N1WVfU66J6SYpYXV8CY67H7bleIOBDH/whH3Z5KB/1D/pH/ePDjQ92OWdc2Ofcp8798qkv8ZTzsX0cp9STTCvxwGNLgB62NOQFPdDDlgA9bGnIh3vTQ7bevd33A97vvKIeawLx6qa6el5XCJZ6fCiM6/jQB3/Ih0hC+Rg9eOaB/kH/aHyw+uH+8yHcPRV/0/VAuv7l+HhGBwIIIIAAAggggAACCAxFYPnLpEPdlZtBAAEEEEAAAQQQQODJCbS/TFp/i3SzsK5e3snCY/EGPdADPyx2aL9VLR8WIPJBPsiHxQ53nw/5Svh6GF9Pv/Lhb296nGwhJQIIIIAAAggggAACCBxJoK2ob35ZtEwhyv3kJvq8tazvS9cbgT2XrOODTxBIPexL+qAP+uCPfS5kXT7IhyPyge5G011dUc9YiDKP7XDd9XX6gk8jQB+Xhxf0QR9BgD/4Y9tvph7kg3y4x3yg22N1+zJFgsRxpXS94cHnMgf6uMwl9YIPPpWAfG1C2HHgD/7gj0Jg54usH+WPo5736Nc96vO/xLvyMfOP3xuIUh0PeuAHeSAP9Qf6Q+OB5xwPaPex2n362vvyy6SRyDmjmwfr6gFiPvChD/5IN7QEwwOPJCAf5aM8SDfcfz7mK+HrYXxd/zJpVdbyXke0Umkh9ZQrHvTAD/JAHiwE9A/6x93IXD4s7rj/8VO+FD4fxecvbeW8mC59V0t1PGaz0kMBwQ/8wA+VgDyQB/LwwcdLTeL6vXH6/enXPvydGr1zN7Qp4nS893HtcB0f+rjmjpbk+OBzjYD8lJ/y4Zo75OfR+XCtZY6+r+d8/vkvk5ZGyde/LXMZLfJkez7rrjc1J499iQ8+QWCvi6zTB33QB39kHuxL+SAfjsiHRp0v937M+gG+nH796op6tpYSAQQQQAABBBBAAAEEPjWBskc9lsrLUcvyWB0PeuAHeRChKA/1B/oD/cGT9Qdyb7Rx8PT1eUU9huuxsp+HOh70kG6oQzb+WHHUN//oYwUiL+UlP/BDErj3PHiU13Hv7ZD3//LarZjExDEulaOU8Whbb6ddDw740Ad/yAf5uPYH+ofeD/Kh50EfPY9R9THqfYV+nnXctayoVwi+IIAAAggggAACCCCAwBAEXoa4CzeBAAIIIIAAAggggAACHYHTdl9dd0UFAQQQQAABBBBAAAEEDiNgRf0w9J4YAQQQQAABBBBAAIHrBOYV9VhXj18hUOJAB3wgB+SAHJADckAOyIERcmD6jfyDR9keOahXb+2DRyNAD/QQ/XYe9EAP9JBuWMdzeYY/+OOe/UHHjcAgPn4JLU2xkl7/q4/U8aAHfqg5IB/ko/5B/2h80HLgWfLwWV7nveh63qMe04Y4lDjQAR/IATkgB+SAHJADcmCEHDjN60VVjzGLCmtGGYc6HvTAD/JAHuoP9IfGA88zHtDvj9XvT/8+96i3vmj9um2p9ez6yPW1JVcq6yN88MkR7qqK9RF90Ad9rH7YP+IP/uCPvSvW+lv7Y32m/tFbP6+ff9H35VNfrrjhyuml1VxfUFx8gM9FLMtJfBYUFx/gcxHLchKfBcXFB/hcxLKcxGdBcfEBPhexLCcfnc/yQncPHv11D/r6yh71mMLEocSBDvhADsgBOSAH5IAckAOj5MD0mx/+bjqy6dJXBBBAAAEEEEAAAQQQOJzAjb9M+t3G767fbj188LlFgD5u0VlXMq59F37XyLTz+OBziwB93KIjf67RoZtrZNr5t+Ez/2XSS0896Gad5Vbd34Li4gN8LmJZTuKzoLj4AJ+LWJaT+CwoLj7A5yKW5SQ+C4qLD/C5iGU5+dZ8lifaPXjr5/Xzd8Br9caK+qVvdw4BBBBAAAEEEEAAAQQ+BYH2l0mnNouZShmPooxDHQ964Ad5IA/1B/pD44HnGQ/o9wfr93+r/DJpNMp2Z406HvQQQ5N28AM/8EO6oXRg5SEeeCQBengsP2jXRmAkXU+/XT/1JW9J2SyHAw4xFKEDOqADPpADckAOyIHjcmAeqOccSokAAggggAACCCCAAAIjEGh/mfS4iYKJuom6iTr/yQE5IAfkgByQA3LgQg5Mv3PxDx7ld16bS7jeEgWfywTogz6ix7l20Ad90Mc1d6wjlWvfwT/885b+obvLBI7z3Y0V9bip+cj760rXE8/lrcz44MM/lUCXG+VMrfMHf/AHf2Qe7Ev5MLtjnbd1OfqGfPKJu+fL9nnD563P5+cn/u24sn2Oep2clS85Sct6/ousu96IJA98eh700fOgj54HffQ86KPnQR89D/roedBHz+Ot9PFWP7e2XzZieZKs56mse/5GIHmUcvpPH77vdTtyr/AuzqTKv3W+iQsHHMJEdEAHdMAHckAOyAE58IY58BL6isH5edlOnp/P73f9Mjd8Ghf6oI9LucIf/BG6kA/yQT6MO77KnN6XfHuEb+e/TNomQ7FCGJOC+MOk9W9wdfW44Do+9MEf8kE+ts5gzUP9g/7R+GD1w/36o9cxX/c8jmnXzR710iB1eqfEoWggDnrAgQ74QA7IATkgB+TAYTkwfePj9xX8ZZbwGkXMB6M11PGgB36QB/JQf6A/NB54uvGAceBQ4+DpG/HLpA4EEEAAAQQQQAABBBAYisDmc9TnFdR5AWWZQarXBRU86KOusPMDP9Q3GviBH2KlufTn9LC+I4/Hg+iBrkfy9fS7VtSHmjm5GQQQQAABBBBAAAEEgsBpqvvSwUAAAQQQQAABBBBAAIGRCJxeyy+R1nfuyl1F2Y6pvKPXn893tFwPAvjQB39sc0M+yE/9R+sd9Q/6x/vuHzc7uupoh64bgeN0Xfeo54e9RLl0uK/lk4Lnnnhbuj53yPjQB3/UwJAPJcZLMMpP/Yf+Uf9YJ6x3Pz5oeSbXxsj1zeeol4iJlMn/40E8jqOWcz0eb+uu9zzw6XnQR8+DPnoe9NHzoI+eB330POij50EfPY8vTB8FbPys+JI/c1vH/ZPymb758fvL3G9+zoBfDnU8qiebHOihcMBjFoN84Ad+kAdrHPDDg/khm9Y4cJx+f/rmh+/fjkGyjZQIIIAAAggggAACCCBwIIHyqS8HPrunRgABBBBAAAEEEEAAgYsETt17ePkt+/c88nyWrvfviSSXLPHB59b7VPRBH/SRaXle8gd/8Me5L/LMW/sjn2dfvvXz+vlXfT+vqCehKOdjCqdsz2fd9UoAH/rgj6KBzIUs5YN8iGhIPexL+qAP+hjeH3I9RFr+z/yqrj0s16b/ao/63AIKBBBAAAEEEEAAAQTGIXCKD/9t84b4Ay7rinr7wP74gPecV7iOD32kdfmj5YF8kI/6j1h30z/qHx+pf5RrI+XaaSp/mXRZ4a/D8mVkXh5E+PT1qG6/3/WeBz49D/roedBHz4M+eh700fOgj54HffQ86KPn8YXoY/6R23HeF/Jzo7FiZce48v97XL2sqMe/TI4pfvWmKzyKtwoEeqCHXEGnB36QB/JAHrQceLQ81K5jtev0e3WPekZuzHbiUG8R3GjgQQ/0UJdCZkPQAz3QQ/YO+gd58Fh5kMrWrqO06/Stj39vm7jZQkoEEEAAAQQQQAABBBA4kMBLbktXzq2Q0xZlA4IDDkGADuiADvhADsgBOfDJc2D6fSvqzXi+IoAAAggggAACCCAwEIH2l0ltRVpnSNE4eOCRK0f0wA/yQB7Ig3XYwg+P7Ydsae08TDtP37ainrJUIoAAAggggAACCCAwDAF71HOlRNlEiQMOQYAO6IAO+EAOyAE5cHgOTH9QV9TjL5DmX1YLZ6rjQQ/5N3v5QR7IA3kgD3IvhDx49DxoI1PtPEo7v8QfJq2NMpfqeNBDMQM/1FyQB/JAHsgDedhy4Fny8Fle573ouqyo/0AdkoQM+yNOxwz62uE6PvRxzR1tpI8PPtcIyE/5KR+uuUN+Hp0P11rm6Pt6zud/mZcOSxEA8v/5YVfPa1G6njMx/FIP9ME/qQH5IB+yk5APQUL/mtmQeqCPvr8YiU/eC92O4tvpD6+uqIeRHAgggAACCCCAAAIIIHAEgfKpLznDnWdR6q0d8h0GPPAIAvQQEGYOeNCD/oIf5MFjjp+062jtOv2RFfUYhjkQQAABBBBAAAEEEBiKQNmj7kAAAQQQQAABBBBAAIHRCJxu/d75aDfrfhBAAAEEEEAAAQQQeBYCL7HTMI5lK3arqs9g8GmCoI+ZA39UAvRAD0FAPs460F9UEPTwIHpoL8M4cBBf1xX1uqpevuTqev0LbFP8Jbp2uF444LPRQ8CgD/6QD0FAPspH/YPxw9of3Hv/KNdHy/Ure9RzXtwa7Pyr6+dMtmfw2dI4f4zPOZPtGXy2NM4f43POZHsGny2N88f4nDPZnsFnS+P88aPzOX/F7cyjv+5xX9/03z7+/fnuosg5YTSLOh700AKKH+SBPJSH8lAeJoFHz4NneZ330Y5loP4Dcaf64ftor3SP9tJexk3GTfIgCcgDeSAP0g2ff3yQP4mvhvDV9J1lRT1bJst9C+X5LF3vWzC5ZIkPPtueI3WRJX3QB32kG85L/uAP/jj3RZ55a3/k8+zLt35eP/+S70/r1CsA5ZEGyXNRz8fxPa43UskEH/pILfCHfJCP8jEIZCboH1YW8nH8fGzubfeZGtZuR7bb9N+vrqhnYykRQAABBBBAAAEEEEDgUxMon/rSZkyvy+xfPRoBj5xJ0wM98IM8kAetc5aH8vDx89C4cCyf1xX1fGNO2eSJAw5hUzqgAzrgAzkgB+SAHDgyB658jnpbO/AVAQQQQAABBBBAAAEEjiHwErOEqXxR4kAHfCAH5IAckANyQA7IgYFy4E/8MukxUyTPigACCCCAAAIIIIDADQKnmDmfH3G2baY/vxZnXMeHPi57gz/kg3yUj/JRPl4jMHo+3Ot9j871e7+/K3vUb4VMNKLr16TczuODzy0C9HGLjnyhD/q4RYA+btGRH59XH9foft6f699fI9vOX+dTVtTLKL8O9Ms3xaak+F71wgEPeuAHeSAP9QdFA/oD44OnGh/JvZFyb/qf9qgXRToQQAABBBBAAAEEEBiLwLKingsGuYJW63mvsbA4LzC7XqAkD3wageRRSvqgD/6Y81I+yIcgIB+NH+5p/CS3hsut6U9/6Ydis4sDAQQQQAABBBBAAAEEBiJw+uz//O95T3q5q82KaK6MKnGhi6KBmM7yBw50wAdyQA7IATnwCXOg7FH/B1bUyxjMgQACCCCAAAIIIIDASAROdVqUM4O8M/W2YoBHI0AP9LCdztMDPdBD9g7rymKe4Q/+uGd/0PFw457pf3z8h1tJZRMpEUAAAQQQQAABBBBA4EAC/Yp6rgQo24oADjjENJYO6IAO+EAOyAE5IAcOyIHpTz7+IyvqB86UPDUCCCCAAAIIIIAAApcItBX1S1ecQwABBBBAAAEEEEAAgcMIvORyurK1AQ44BAE6oAM64AM5IAfkgBw4Ogf6PerNk+seJPVGIPck4YFHEKCHNbnxoAd+4IccyciD+8+DaMM4+HoYX5+qv8qX9Jl6ESge9FCTavYFPdADPVQC+gf9g/7xwcdLTeLGQQP1+/aozx2wAgEEEEAAAQQQQACBkQhM3/n4g3WRZKSbci8IIIAAAggggAACCDw7ASvqz64Arx8BBBBAAAEEEEBgSAJtj/qQt+amEEAAAQQQQAABBBB4XgKbFfXYARO/5puHOh70kG5ovz6EBx5JQD7KR3mQbpCPj5YH2bKP9rru8/VMf/zxH8edOxBAAAEEEEAAAQQQQGAgApsV9YHuyq0ggAACCCCAAAIIIPDkBF5eX1/rZyQrcYi3VuiADuiAD+SAHJADckAOjJEDp8+m2GdX/q/b7ZQ4xNSVDuiADvhADsgBOSAH5MDROXD9U19iOl3a5+rhOj70cdUe9W0qfPC5RkB+yk/5cM0d57+buv9O/nlb/+x5Zx33t+V+hW/doz6VEXm7vilriLQkcX3DpQi28sCnkgj/0gd9yI+dD+SDfJhXuuSjfLynfMyRKN2Oo9tT2aJe2yXK1ym+rPXPdnXX8aEP/ojxR8uN3g/yoechP3se9NHzoI+eB330PI7TR38f2qXncUS7zHvUY/AR86cYrJcv8aj9N9ddx4c++EM+yEf9Q3aOax7oH/WPj9M/0nX2c+P4+iVi97Uukc1lrZfHdRIRTeY6PkUHnR7ogz/mXJAP8lP/IR/1Dy0Hah7ee/9o3DfauHf6g4//tFiszqHi3uZDvSZv4sCnkCgyWQ76wIMeFjvIh4KCHughCegf7tsP2rERGEfH07c/lIF6uZ9YIayf1Bh5q44HPfBD5pQ8kAfyQB7Igzb+foI8rPPuJ3id9zLunb798UsxNHcggAACCCCAAAIIIIDAQASWT33JGZSytM5m5QAPPOihaGB+p03JD/zAD3JADsiBT5cD0+9//GEr6oW3AwEEEEAAAQQQQACBkQj0K+p5Z7mirN4I4HHfvxuj/bTfdjmCHuiBHrJ3X99BzjP88dz+oIPhxn3Ttz7+s21kZRMpEUAAAQQQQAABBBBA4EAC/Yp6zqSVbUaNAw4xjaUDOqADPpADckAOyIEDcmD6vY//3Ir6gTMlT40AAggggAACCCCAwCUCbUX90hXnEEAAAQQQQAABBBBA4DACp/ZXHA57fk+MAAIIIIAAAggggAACFwi8xF9miqOW5bE6HvTAD/IgQlEe6g/0B/qDJ+sP5N5w4+B1RT02yG8P9S2N9gsU2zP4bGngQw/0sCVAD1sa8oEe6GFLYHQ95L2Ofp9Pcn/LHvV5Yb3+wbFoI/WmVBxw4Ad5IAfkgByQA3JADhyRA+uKeuNfP4lufnix2E9g9t/k+p5IX8en57Gv4bMn0tfx6Xnsa/jsifR1fHoe+xo+eyJ9HZ+ex772qHwe9XVl+w3/+r754Udzkpj3rEQAAQQQQAABBBBAAIGDCZytqB98P54eAQQQQAABBBBAAAEECoFlj3rbfbZ9AyAW2tVXleBBD/zAD0lAHsgDeZBuMH54tDzIln2013Wfr6esqEeDlC/1/jfBs9TnF7bU5wZc6q7jRz/8EzEiP+Z03OSpfJSP8lE+3lk+tgbb5JhxXyVw0Lh3+t0PPxZP7UAAAQQQQAABBBBAAIGBCGz2qM8rP8vNqdeVIDxmAvRAD5sV81xx4Q/+qATkg3yQD0sc3n0+5ivh6xF8Xfaoa4gRGiJtYa8fPdKjDl8eJAF5IA/kQbrh040P+G4k373Um6l7S4sZlMUPONBBdAx0QAd0wAdyQA7IATlwbA6c6rypfImyfSlNoo4HPfBDDQV5IA/1D/pH44NnGR89y+u8p1yf96jHjDHmTNPcRqVekmkqK+ytr3YdH/rgj00eyAf5qH/QP84jB/3j4/SPXT9nXDjEuHj6jx9+4jWG4W1AXl0339h6xnV8VjVkIK1n6IM+VjXQR+voViL8wR+rGviDP2LBY1XEaPnQRoGhU75dW+lY355qc8wtElvUl98tLcP3vl6+03V8QrlVL/TR+4E/eh700fOgj54HffQ86KPnQR89j0+nj6Oe17giZkaXdf/n/uJf+PN/qUhgM78r36yOR8hgOehjO7PmD3qghyUcygN6oAd6WAncux/yldz763ic+59X1MsoflkpjdxVxyN0UP6vuqAHeqAHfpAH8jByQH/w2P0Bn4/m8+l3PvxUvxhQ2siBAAIIIIAAAggggAACxxLo9qivK0blproVdnU8igaWFXZ6oAd64Ac5IAfkgByQA2+dA9Nvf/iyFfWiMwcCCCCAAAIIIIAAAiMRsKLunQMr5d4p8A6aHJADckAOyAE5MGAOTL/14V9aUR9p6uReEEAAAQQQQAABBBAoBNqKOhQIIIAAAggggAACCCAwFIGT5fSh2sPNIIAAAggggAACCCBQCfR71BNK7tFRbwTwaHsX6YEeggA/8MN2hYce6IEesne8/3zMV8LXw/h6+g8fvrK1WDaREgEEEEAAAQQQQAABBA4kYI/6gfA9NQIIIIAAAggggAAC1wi85HK6siHCAYcgQAd0QAd8IAfkgByQA0fnwNke9diWdGsPquv40EfRQDp35xf+4A/+4A/5EME4H5u9zvKxMNnwqIQ29SH4aLdGYKB2aZ/6UgYdOe6IctrV46Lrre3woQ/+6PNAPvQ86KPnQR89D/roedBHz+NwfZShTh3vGfc1DjOPI9vFHvU2/vYVAQQQQAABBBBAAIGhCEy/8eFnc7F8qBtzMwgggAACCCCAAAIIPDMBK+rP3PpeOwIIIIAAAggggMCwBNa/TPpaFtan+qsM7WbV8aCH1bj8wA/8wA9JQB7Ig0fOAzpvBAbx+bqivvy68dxC6gXEZuKCBx70MIdDSoE/FiDyIUXRkOCBh7xc4qGhuKO8zDvn4yF8PH39w7+2Rz1FqUQAAQQQQAABBBBAYBAC64r62Q3F+H0zA3R9RwAf+uCPnSk2Vf7gD/7YGGL3kD/4Y2R/7OS6VOn2CN2eXnMPzllZWiZ0dHa+NFTszcr2cn3mkVyyxI9++Ed+ZB7sS/kgH+SDfNjnQtaPzoe8j3159H095/Of2i+QloF3ndwpcShGCAj0gAMd8IEckANyQA7IgUNzoH7qS7RBLIy3wVkr1PGgh6KBWQb8MIPAo9qCHuhBPhYNzDLghxnEA/CINo3DuHCccfG8R700Sf1vmv9kqjoeIQl6iPnrbA486EE+8oM8KDnQ/tM/PGL/oN8fT9dlj3rLnVa+LivrUX+d4ovrEUr4hA7oY+sX/pAP8lH/oH/QPz7S+EC/Nl6/Nu9Rj7Ato9E45iLq8fB1U3cdH/qoLqh+4Q/5IB9XP+gf9A/6h9UP99o/3Ot9t/x5zHHrS6wIvYa7LpblpV88n9/vOj70wz+ZB/tSPsgH+SAf9rmQdfkwZj5ol9HaZfrVD18tQ/FinLiz5VDHgx4WO/BHQUEP9JAE9A/8IA/SDY83fspXxuej+Hz62vsyUL/QHrHnKk7Xw/Wz9sKHPvhDPsjHQkD/oH/Yjdv1j3fcP86xztcFxCC6nr724d32VrKJlAgggAACCCCAAAIIIHAggeVTX+rMIVdGlG0mhQMOMY2lAzqgAz6QA3JADsiBA3Jg+pUP762oHzhT8tQIIIAAAggggAACCFwi0FbU91dyxrA/n3XX28pC8tiX+OBza/pLH/RBH/vUXOv8wR/8sfph/+it/bF/vqy/9fP6+Vd9v36OejZGlgHt1uH6LTqb3yS58m34XQEzn8YHn1sE6OMWHflDH/RxiwB93KJz/Rpu19nElTfiY496zNwDrhIHOuADOSAH5IAckANyYKAcmH75w8eQpAMBBBBAAAEEEEAAAQQGInB5j/pAN+hWEEAAAQQQQAABBBB4RgLX96g/Iw2vGQEEEEAAAQQQQACBQQjUFfWBtuLYKl6EoT1skbRFkg/kgByQA3JADsgBK+qDzJjcBgIIIIAAAggggAACWwLLHvX8jVJlw4MDDkGADuiADvhADsgBOSAHjsqB0zTFGyvr0dfa207rVXV8tmqgB3qghy0BetjSkA/0QA9bAveih3u5z2T78Pf7b9//Uk4S8jUrEUAAAQQQQAABBBBA4GAC9qgf3ACeHgEEEEAAAQQQQACBSwSWPerr79Xmt8VC+/YNBXU86CHdwS/yQB7IA3mQBOTBY+WBdm0ExtD1S72Zuk+9hG7uV1cvWPCgh3kgwg/8IA/0D/rHNnaRh0+Qh/ESo/8zDhphHDR9eP/vYspw4djPJPbf4noV8R7LUscHn3mgv2hi+4A+6IM+to7oH/MHf/BH74lt7a39sX2u7eO3fl4//5LvN3vUd4BqdWsU1zuA+BQc9LFGGH/wx8YP8kE+yMc1Hpc/ZTif4o+x/bG0nH5thH6t7FHfNcTWUHFpW6+Nt/l+1/Ghj6KBzQBty4M/+GOrB/nZ64E/eh700fOgj57HJ9VHwNevVeSflHt5sgu6L3vUS2N0e5HU8QiD0gEd0AEfyAE5IAfkgBw4MgdecvB+qYzF9kvn42Scdx0f+mgz4Esc+IM/LulCfuo/9J/GD6P2D6Pe1zPn5rxHvcyWIjmWPXWtHn+1tHY0sbrqOj70UUwSB39EHsgH+ah/WPNA/1lysR7y8Z7zcSr9G1+P5evpq++/9hr2ag2z2Ey9oahf8aEP/lgNwQ/8wA/8kATkwWPlgXZtBEbS9amuDs53FAum8bZHLBjWGWEr1rrr+NDH6gf+aBP6zAv5IB/kg3zIPJCPd5mPc/OtOpbrh+d6WVH/1RKtS9MUa8URb3281rNZ388ZXccnVEMfQYB/5EOMUPOQn/oH/YP+Yc2D+8rHe73vx83dMlD/tZYom5WQZdyR4w9l8xkOOPDJOi/hB37gB36QA3JADrxpDky/EAN1BwIIIIAAAggggAACCAxFoNujvtxZzpDzhHqbMePRCNADPWyn9/RAD/SQvcO6spZn+IM/7skfdDvcOGf6N+9/fSuhbCIlAggggAACCCCAAAIIHEigX1HPmb+yrQDggENMY+mADuiAD+SAHJADcuCAHJh+/v3XragfOFPy1AgggAACCCCAAAIIXCLQVtQvXXEOAQQQQAABBBBAAAEEDiNwspx+GHtPjAACCCCAAAIIIIDAVQL9HvX8ttyDo94I4NH2JtIDPQQBfuCH7QoPPdADPWTveP/5mK+Er4fx9fRz739ja7FsIiUCCCCAAAIIIIAAAggcSODiHvX9RGp/f673Ey18egL0QR+3Zv/0QR/00WfmtsYf/HGkP7Za3D6my+N0+ZKC2JbxeFuPxtrWXe954NPzoI+eB330POij50EfPQ/66HnQR8+DPnoeX7Q+9j8v67i/LfdbfE9T3XAaTdGOmDVtD/Utjbb9bHsGny0NfOiBHrYE6GFLQz7QAz1sCYyqh1HvK9k92/2d/qy88njRrzGcLw/mQh0PeuAHeSAf9Q/6R+OBZxsPyL2hcm9dUZ+nKHOxLH2oF8XGgc8WAx70QA9rLPADP/ADP+Qw4e7zwLiv2nmcdvyZ978Zc0UHAggggAACCCCAAAIIDETg4qe+DHR/bgUBBBBAAAEEEEAAgackcMq96XUT2rS84dE2rUd9u2nd9VUkAQ4f+uCP9vZg+iEdknV88IluJfVAH41A8uAP/hjSH0WmQ97Xc467Tm1TVWmRaJR1h9Van+YkcR0f+giTtCP9wB+Fh/yQn2GLagr+WFCEL/Sf8uEe85FuR9Lt9JX3vx0t4kAAAQQQQAABBBBAAIGBCGz2qM8zqOXm1LsVomUPUALCB5/NCiJ9FGPgkemw7gnLM/KCPvgj3cAfo+dBttTo9/kc91f2qJcXemmvdb5+1/Ghj7Vf4Qd+4Ad+0D+2eZc8fNA8NC4caVw8/fT734kWKdOnJXnK46znrCrr+9L1RmDPJev44BMEUg/7kj7ogz74Y58LWZcP8uGIfKC70XT3EhPiOKKMh3192tVdx6fKZdYLffR64I+eB330POij50EfPQ/66HnQR8/j0+jjtSwsHfG86zjU8+/5l099idl7+b/+VwBFVR0Peigu4Ad5IA/1B/pH44NwwXP0B8/yOu8p1+qK+mtZS48R/Fq2mdtadx0f+lj9wB+9H+RDz4M+eh700fOgj54HffQ8jtbHvj2yfvR9Pe/zzyvqbRE91o5i5lyPutK+ref5LOdvXL4/z2fpeiWBTxPEGQf6oI9C4EwXTS7tnT7X8Uk97Ev5UYnwTxPGGQf6+Hz62Pst67h+Pq7fG7+X2Jgee5JaWW5BHQ964IeaA/JAHuof9I/GB881PpL7o+X+9OX33yhdcozyS7Ec6njQw2IH/igo6IEekoD+gR/kQbrh8cZP+cr4fBSfTz/1Lgbqu2PfPrvLZ+MW13sC+PX67umc55rrPQH6oZ/zVF41Qh/0QR+rH/aP+OPz+WPPM+u4fj6un4Pfukc9GyPL+KG3Dtdv0Vn33l77LvyukWnn8cHnFgH6uEVH/tAHfdwiQB+36Fy/htt1NnHljfiUv0w6/3DlutIbsPHAgw74QA7IATkgB+SAHDgwB6affP+fQ4IOBBBAAAEEEEAAAQQQGIhAW1Ef6IbcCgIIIIAAAggggAACCHz22fU96ugggAACCCCAAAIIIIDAYQT6Pep5G7kXR70RwKP/bWc88NhumKMHeqCH7C3Xvbx5hj/44578QbfDjfumH3//X7YSqje4z5Vstyxd73MnuWSJDz5npkpxlJI+6IM+NobYPeQP/uCPnSk21bf2x+apuodv/bx+/nXfX9yjfssk0XKud/o9q+BzhqQ7gU+H46yCzxmS7gQ+HY6zCj5nSLoT+HQ4zir4nCHpTjw6n+7FbiqP/rpHfn32qG+E6CECCCCAAAIIIIAAAqMQqCvq+ZaDsr1bgAMOMbumAzqgAz6QA3JADsiBI3PgbEU9bubW4fotOk3Mt74Dv1t08KMP+rhFgD5u0ZEf9EEftwh8r/r4Xv9d3ot/nyQul9+Nz7JHPffnbGeO8SO357MeP/TSedf7lYfksS/xox/+CVdc1gF/XOaSvPDBR37U+Lg4DuGPt/EHrm/D9f8l10/TFPjLEc4vD+eaOh70wA/yoIajfNQ/6B+ND55nfGQcOAf/KOPAH333rZycZ5ekRAABBBBAAAEEEEAAgYMJnO1RP/h+PD0CCCCAAAIIIIAAAggUAmWP+ry2n+9tKguWeOMHFxzogA/kgByQA3JADsiB43LgpcKv+9TLTSjbIB0HHOqGzDAmX8gFOuADOSAH5IAcOCYHph959+2YKpYjZ4ytpo5HNWXKgT4KiQjqPOgDD3pIN+gv5IE8eKQ8SGfT9Qi6LnvUo0HKl9oeG6Et9bmhlvrcgEvddfzoh38iRuTHnI6bPJWP8lE+ysc7y8dcmFvGecZ9lcDC49Pm+vI56stNZAPFibiX7VHr8w3Gede3dGYe+NSOmT74Qz7Ihy2Bqgf5KB/nCb182LpjvPFD3h3fFhLH5pY96vYgzyuhJTztzS+GxIEOYiBBB3RAB3wgB+TA8TnwkpMlZZs04YBDTJ7pgA7ogA/kgByQA3Lg6Bywom7lzEq6dxJKb2zlyMrR8StHdMiHfMiHcqDPgemH3/3ha8giZgz7spyqx/581l3HJwikHvYlfdAHffDHPheyLh/kg3wYLx/4cjxfnqpMriTncnp5MDfhXF9OLw9crwTwqTO/RRbLA/qgj0KAP/ijrAwtsbA8kA/yQT6kMRZbLA8+jT+Wp1sefJrnPfp1j/z8ZUX9j+r2m7kp+hbpT25q+xbcXKoPXZ93de3BzHV88Llgu0Ut9EEf9LHY4ewBf/AHf5zZYjnxef2x/KDdg8/7c/3779W3/Yp6cqxl+dLVS5t1ddd7Hvj0POij50EfPQ/66HnQR8+DPnoe9NHzoI+exxetj/3Pyzrub8v9Mt/pS+/++NbUtLSOAwEEEEAAAQQQQAABBD41gbai/qmf1fMhgAACCCCAAAIIIIDATQIny+k3+biIAAIIIIAAAggggMAhBG7sUS/3U7bLXPzcRudxiRkeHdABHfCBHJADckAOyIE3y4Hpn7z7jkX1Q+ZInhQBBBBAAAEEEEAAgesE7FG/zsYVBBBAAAEEEEAAAQQOI2CP+mHoPTECCCCAAAIIIIAAAtcJWFG/zsYVBBBAAAEEEEAAAQQOI2BF/TD0nhgBBBBAAAEEEEAAgesE6op6/rJufpt6++VdPBoBeqCH7W+c0wM90EP2DuuHfeQZ/uCPe/YHHY837nkJQeX/cXv5OIWmvjLBZ2VBH6EGPOTDqgF6WFnIhxoP+tNNRvLHffhDO43XTqepfhh2C5X4GqsB20N9SwMfeqCHLQF62NKQD/RAD1sC9LClcT/5oN3GarfTn5Wlj6m0ymssgUTZirXuOj70sfqBP9rfucq8kA/yQT7Ih8wD+fgw+WhcOM64+DRFa8TRF2t9Pu96hwmf1At9dMJIHItf8kTyat9NP8kDH/oJAqkH/uj1wB89D/roebyRPnJYyJcd7jWn3oj7wnv/83/o3Z/GXNiBAAIIIIAAAggggAACAxHwOeoDNYZbQQABBBBAAAEEEEAgCZxyb3rdZFc3JZVLseweF9T7Tft44DHvxeQP+SAfS0fBD/pL44UHHC8ZB440Dp5+8N3/ih43RubZMko86IEf5IAckANyQA7IATlwcA6Uv0wag/Roh1LWh1kv57q66z0PfHoe9NHzoI+eB330POij50EfPQ/66HnQR8/jjfXRnsy4cJBx8f8F9tYKrLSubEcAAAAASUVORK5CYII=;" vertex="1" parent="1">
                    <mxGeometry x="190" y="75.9" width="640" height="315.71" as="geometry"/>
                </mxCell>
                <mxCell id="5" value="" style="edgeStyle=none;html=1;fontColor=#666666;fontFamily=Tahoma;" parent="1" source="2" target="4" edge="1">
                    <mxGeometry relative="1" as="geometry"/>
                </mxCell>
                <mxCell id="2" value="Base de datos" style="shape=cylinder3;whiteSpace=wrap;html=1;boundedLbl=1;backgroundOutline=1;size=15;fontFamily=Tahoma;fontSize=10;" parent="1" vertex="1">
                    <mxGeometry x="110" y="190" width="60" height="80" as="geometry"/>
                </mxCell>
                <mxCell id="4" value="Train" style="shape=cylinder3;whiteSpace=wrap;html=1;boundedLbl=1;backgroundOutline=1;size=15;fillColor=#4D9900;strokeColor=#FFFFFF;fontFamily=Tahoma;fontSize=10;fontColor=#FFFFFF;" parent="1" vertex="1">
                    <mxGeometry x="217" y="99.38" width="60" height="80" as="geometry"/>
                </mxCell>
                <mxCell id="6" value="Test" style="shape=cylinder3;whiteSpace=wrap;html=1;boundedLbl=1;backgroundOutline=1;size=15;fillColor=#FF9933;strokeColor=#FFFFFF;fontColor=#FFFFFF;fontFamily=Tahoma;fontSize=10;" parent="1" vertex="1">
                    <mxGeometry x="217" y="190.63" width="60" height="80" as="geometry"/>
                </mxCell>
                <mxCell id="7" style="edgeStyle=none;html=1;entryX=0;entryY=0.5;entryDx=0;entryDy=0;entryPerimeter=0;fontColor=#666666;fontFamily=Tahoma;" parent="1" source="2" target="6" edge="1">
                    <mxGeometry relative="1" as="geometry"/>
                </mxCell>
                <mxCell id="8" value="&lt;b&gt;Procesamiento&lt;/b&gt;&lt;div style=&quot;text-align: left;&quot;&gt;&lt;ul&gt;&lt;li&gt;&lt;font style=&quot;font-size: 10px;&quot;&gt;Casteo&lt;/font&gt;&lt;/li&gt;&lt;li&gt;&lt;font style=&quot;font-size: 10px;&quot;&gt;Nuevas variables&lt;/font&gt;&lt;/li&gt;&lt;li&gt;&lt;font style=&quot;font-size: 10px;&quot;&gt;Imputación de valores faltantes&lt;/font&gt;&lt;/li&gt;&lt;li&gt;&lt;font style=&quot;font-size: 10px;&quot;&gt;Tratamiento de valores atípicos&lt;/font&gt;&lt;/li&gt;&lt;li&gt;&lt;font style=&quot;font-size: 10px;&quot;&gt;Encoding de variables categóricas&lt;/font&gt;&lt;/li&gt;&lt;li&gt;&lt;font style=&quot;font-size: 10px;&quot;&gt;Otras transformaciones&lt;/font&gt;&lt;/li&gt;&lt;/ul&gt;&lt;/div&gt;" style="rounded=0;whiteSpace=wrap;html=1;verticalAlign=top;spacingLeft=0;spacingRight=0;fontFamily=Tahoma;fontColor=#666666;strokeColor=#255255;strokeWidth=4;" parent="1" vertex="1">
                    <mxGeometry x="290" y="87.5" width="130" height="292.5" as="geometry"/>
                </mxCell>
                <mxCell id="11" value="&lt;b&gt;Modelado&lt;/b&gt;&lt;div style=&quot;text-align: left;&quot;&gt;&lt;ul&gt;&lt;li&gt;&lt;font style=&quot;font-size: 10px;&quot;&gt;Ajuste sobre datos de entrenamiento&lt;/font&gt;&lt;/li&gt;&lt;/ul&gt;&lt;/div&gt;" style="rounded=0;whiteSpace=wrap;html=1;verticalAlign=top;spacingLeft=0;spacingRight=4;fontFamily=Tahoma;fontColor=#666666;strokeColor=none;" parent="1" vertex="1">
                    <mxGeometry x="430" y="87.5" width="120" height="102.5" as="geometry"/>
                </mxCell>
                <mxCell id="12" value="&lt;b&gt;Evaluación&lt;/b&gt;&lt;div style=&quot;text-align: left;&quot;&gt;&lt;ul&gt;&lt;li&gt;&lt;font style=&quot;font-size: 10px;&quot;&gt;Métricas en la partición de entrenamiento / Validación cruzada&lt;/font&gt;&lt;/li&gt;&lt;li&gt;&lt;font style=&quot;font-size: 10px;&quot;&gt;Métricas en la partición de evaluación&lt;/font&gt;&lt;/li&gt;&lt;li&gt;&lt;font style=&quot;font-size: 10px;&quot;&gt;Métricas en producción&lt;/font&gt;&lt;/li&gt;&lt;/ul&gt;&lt;/div&gt;" style="rounded=0;whiteSpace=wrap;html=1;verticalAlign=top;spacingLeft=0;spacingRight=0;fontFamily=Tahoma;fontColor=#666666;strokeColor=none;" parent="1" vertex="1">
                    <mxGeometry x="560" y="87.5" width="120" height="292.5" as="geometry"/>
                </mxCell>
                <mxCell id="13" value="Prod" style="shape=cylinder3;whiteSpace=wrap;html=1;boundedLbl=1;backgroundOutline=1;size=15;fillColor=#3399FF;strokeColor=#FFFFFF;fontFamily=Tahoma;fontSize=10;fontColor=#FFFFFF;" parent="1" vertex="1">
                    <mxGeometry x="217" y="280.63" width="60" height="80" as="geometry"/>
                </mxCell>
                <mxCell id="14" style="edgeStyle=none;html=1;entryX=0;entryY=0.5;entryDx=0;entryDy=0;entryPerimeter=0;fontColor=#666666;fontFamily=Tahoma;exitX=1;exitY=1;exitDx=0;exitDy=-15;exitPerimeter=0;" parent="1" source="2" target="13" edge="1">
                    <mxGeometry relative="1" as="geometry"/>
                </mxCell>
                <mxCell id="15" value="&lt;b&gt;Deploy&lt;/b&gt;&lt;div style=&quot;text-align: left;&quot;&gt;&lt;ul&gt;&lt;li&gt;&lt;font style=&quot;font-size: 10px;&quot;&gt;Predicción sobre datos nuevos&lt;/font&gt;&lt;/li&gt;&lt;/ul&gt;&lt;/div&gt;" style="rounded=0;whiteSpace=wrap;html=1;verticalAlign=top;spacingLeft=0;spacingRight=0;fontFamily=Tahoma;fontColor=#666666;strokeColor=none;" parent="1" vertex="1">
                    <mxGeometry x="690" y="277.5" width="120" height="102.5" as="geometry"/>
                </mxCell>
            </root>
        </mxGraphModel>
    </diagram>
</mxfile>